<?xml version="1.0" encoding="UTF-8" standalone="no" ?>
<!DOCTYPE svg PUBLIC "-//W3C//DTD SVG 1.1//EN" "http://www.w3.org/Graphics/SVG/1.1/DTD/svg11.dtd">
<svg xmlns="http://www.w3.org/2000/svg" xmlns:xlink="http://www.w3.org/1999/xlink" version="1.1" width="1280" height="1024" viewBox="0 0 1280 1024" xml:space="preserve">
<desc>Created with Fabric.js 3.6.3</desc>
<defs>
</defs>
<g transform="matrix(1.966205837173579 0 0 1.966205837173579 640.2456813819579 512.1966205837175)" id="background-logo"  >
<rect style="stroke: none; stroke-width: 1; stroke-dasharray: none; stroke-linecap: butt; stroke-dashoffset: 0; stroke-linejoin: miter; stroke-miterlimit: 4; fill: rgb(255,255,255); fill-rule: nonzero; opacity: 1;"  paint-order="stroke"  x="-325" y="-260" rx="0" ry="0" width="650" height="520" />
</g>
<g transform="matrix(3.9041967710788317 0 0 3.9041967710788317 640.2456813819579 512.1966205837176)" id="logo-logo"  >
<g style=""  paint-order="stroke"   >
		<g transform="matrix(1.3927473527508794 0 0 1.3927473527508794 0 0)"  >
<g style=""  paint-order="stroke"   >
		<g transform="matrix(1 0 0 1 0 0)"  >
<path style="stroke: none; stroke-width: 1; stroke-dasharray: none; stroke-linecap: butt; stroke-dashoffset: 0; stroke-linejoin: miter; stroke-miterlimit: 4; fill: rgb(245,121,109); fill-rule: nonzero; opacity: 1;"  paint-order="stroke"  transform=" translate(-90.03, -90.055)" d="M 169.56 46.79 H 133.78 l -0.49 -0.51 V 0 H 79.54 L 78.47 1.07 L 75.92 3.62 L 72.41 7.13 L 69.86 9.68 l -4.18 4.19 l -2.55 2.54 L 59.51 20 L 57 22.58 l -3.57 3.57 l -6.59 6.6 v 14 h -14 l -0.16 0.17 l -3.32 3.31 l -2.54 2.54 l -3.62 3.62 L 20.57 59 L 17 62.54 l -2.55 2.55 l -3.54 3.54 L 8.36 71.18 L 4.79 74.75 L 0 79.54 v 53.78 H 43.59 l 3.21 3.37 v 43.42 h 54.14 v -0.19 l 1.86 -1.86 l 3.58 -3.58 l 2.54 -2.54 l 1.82 -1.82 l 0.08 0.08 l 1.71 -1.71 l 6.13 -6.13 l 2.54 -2.53 l 3.63 -3.63 l 2.54 -2.54 l 3.31 -3.32 l 2.55 -2.54 l 0.06 -0.07 V 133.32 h 14.44 v 0 l 1.21 -1.21 l 2.55 -2.55 l 3.56 -3.56 l 2.55 -2.55 l 5.15 -5.15 l 1 -1 l 4.2 -4.19 l 2.54 -2.55 L 174 107 l 2.54 -2.54 l 3.52 -3.53 V 46.79 Z m 0.17 5.41 l 1 1 l -3.63 3.63 l -4.38 -4.62 Z m -12 0 l 6.8 7.16 l -3.58 3.57 L 150.76 52.2 Z m -11.91 0 l 12.59 13.27 L 154.85 69 L 138.9 52.2 Z m -1.11 27 h -3.93 L 122.94 60.4 l 3.52 -3.51 l 19.72 20.79 Z M 100.94 68.93 l 2.83 3 l -2.83 2.83 Z m 0 -12.67 l 9 9.5 l -3.62 3.62 l -5.38 -5.68 Z m 0 -13.83 L 116.68 59 l -4.19 4.19 L 100.94 51 Z m 0 -6.79 l 2.75 -2.76 l 19 20.08 l -3.51 3.51 L 100.94 37.2 Z m 7.71 -7.71 l 1.16 -1.16 l 18.08 19.05 v 2 l -2.6 2.6 L 106.23 30.34 Z M 107.5 75.84 l 3.15 3.33 h -6.48 Z M 110 73.3 l 3.63 -3.63 l 9 9.5 h -7 Z m 6.17 -6.16 l 4.19 -4.2 l 15.4 16.23 h -8.16 Z M 129 54.34 l 2.15 -2.14 h 2.79 l 18.37 19.36 l -3.58 3.57 Z m -1.11 -13.75 L 112.36 24.22 l 3.53 -3.54 l 12 12.64 Z m 0 -12.5 l -9.45 -10 L 122 14.57 l 5.88 6.19 Z M 124.56 12 l 3.33 -3.33 v 6.84 Z m -1 -6.62 l -2.7 2.7 l -2.57 -2.7 Z m -10.23 0 l 5 5.25 l -3.57 3.57 L 106.36 5.4 Z m -11.91 0 l 10.77 11.37 l -3.53 3.53 L 94.51 5.4 Z m -11.85 0 L 106.1 22.84 l -3.59 3.59 L 82.58 5.4 Z M 79.15 8 l 0.49 -0.49 L 100 29 l -3.41 3.41 h -0.2 L 76.14 11.05 Z M 73.59 13.6 L 91.41 32.38 H 83.24 L 69.4 17.79 Z m -6.73 6.73 L 78.28 32.38 H 71.22 l -8 -8.42 Z M 60.69 26.5 l 5.57 5.88 h -7 l -2.2 -2.31 Z M 46.8 52.2 v 4.5 l -4.27 -4.5 Z m -12 0 h 2.75 l 9.23 9.73 v 6.8 L 32.91 54.11 Z m -4.45 4.45 L 46.8 74 v 5.21 H 44.69 L 26.75 60.27 Z M 24.2 62.81 L 39.73 79.17 H 32.78 L 20.64 66.38 Z m -6.11 6.12 l 9.72 10.24 H 20.92 l -6.37 -6.7 Z M 12 75 l 4 4.16 H 9 l -0.56 -0.58 Z m 88.94 97.28 v -3.54 l 1.72 1.82 Z m 4.27 -4.27 l -4.27 -4.5 v -7.26 l 7.8 8.22 Z m 6.07 -6.08 L 100.94 151 V 143.7 l 13.92 14.67 Z m 6.13 -6.12 l -16.47 -17.35 v -5.15 h 2.17 L 121 152.2 Z m 6.16 -6.17 l -15.5 -16.33 h 6.45 l 12.36 13 Z m 4.32 -7.47 l -8.4 -8.86 h 6.83 l 1.57 1.64 Z m 14.44 -14.27 H 95.54 v 46.8 H 52.2 v -46.8 H 6.37 l -1 -1 V 84.58 H 52.2 V 37.78 H 95.54 v 46.8 h 45.39 l 1.4 1.47 v 41.86 Z m 5.44 -2.29 l 0 0 v -7.33 l 3.6 3.8 Z m 0 -12.6 v -7.44 l 9.77 10.3 l -3.62 3.62 Z m 12.32 0.32 l -12.32 -13 V 91.75 l 16.51 17.4 Z m 6.74 -6.74 L 147.73 86.52 V 83.77 l 2.17 -2.17 l 20.4 21.49 Z m 7.89 -11.06 h -0.12 v 3.29 l -1.72 1.72 l -20.4 -21.49 L 156 75.47 l 18.65 19.68 Z m 0 -5.62 l -16.12 -17 l 3.54 -3.53 l 12.58 13.25 Z m 0 -12.5 l -10 -10.57 l 3.57 -3.57 l 6.46 6.81 Z m 0 -12.56 l -3.91 -4.13 l 3.61 -3.62 l 0.3 0.31 Z" stroke-linecap="round" />
</g>
</g>
</g>
</g>
</g>
</svg>